<svg width="360" height="450" viewBox="0 0 360 450" fill="none" xmlns="http://www.w3.org/2000/svg">
  <rect width="360" height="450" fill="white"/>
  <g filter="url(#softShadow)">
    <rect x="88" y="211" width="144" height="139" rx="18" transform="rotate(9 88 211)" fill="#FF681E"/>
  </g>
  <g filter="url(#softShadow)">
    <rect x="94" y="53" width="72" height="151" rx="14" transform="rotate(-7 94 53)" fill="#53ADEC"/>
  </g>
  <g filter="url(#softShadow)">
    <rect x="184" y="73" width="76" height="76" rx="14" transform="rotate(-8 184 73)" fill="#FF1717"/>
  </g>
  <g filter="url(#softShadow)">
    <rect x="247" y="94" width="70" height="74" rx="15" transform="rotate(6 247 94)" fill="#EF75D8"/>
  </g>
  <g filter="url(#softShadow)">
    <rect x="158" y="149" width="154" height="76" rx="17" transform="rotate(-2 158 149)" fill="#CF4D7B"/>
  </g>
  <g filter="url(#softShadow)">
    <rect x="234" y="208" width="72" height="73" rx="14" transform="rotate(-18 234 208)" fill="#050505"/>
  </g>
  <g filter="url(#softShadow)">
    <rect x="257" y="324" width="72" height="72" rx="14" transform="rotate(15 257 324)" fill="#FFE01B"/>
  </g>
  <defs>
    <filter id="softShadow" x="40" y="20" width="300" height="400" filterUnits="userSpaceOnUse" color-interpolation-filters="sRGB">
      <feDropShadow dx="0" dy="12" stdDeviation="12" flood-color="#0F172A" flood-opacity="0.12"/>
    </filter>
  </defs>
</svg>
